
<svg width="16" height="16" viewBox="0 0 24 24" fill="none" xmlns="http://www.w3.org/2000/svg">
<path d="M12.03 2.10837V2.11822C12.0398 2.16748 12.0398 2.22659 12.0398 2.28571V9.38916C12.03 9.42857 12.0004 9.43842 11.9709 9.45812C11.764 9.55664 11.5669 9.64531 11.36 9.73398C11.0743 9.86206 10.7788 9.99999 10.493 10.1281L9.45856 10.601C9.17285 10.7291 8.88713 10.8571 8.61127 10.9852C8.2763 11.1429 7.93147 11.2906 7.59649 11.4483C7.31078 11.5763 7.02506 11.7143 6.7295 11.8424C6.49304 11.9507 6.25659 12.0493 6.02999 12.1576C6.01029 12.1675 5.99058 12.1773 5.97088 12.1773C5.96102 12.1773 5.96102 12.1773 5.95117 12.1675L6.21718 11.7241C6.7295 10.8768 7.23196 10.0394 7.74428 9.19211C8.28615 8.28571 8.83787 7.3793 9.37974 6.4729C9.88221 5.63546 10.3945 4.79802 10.897 3.96059C11.2615 3.34975 11.6359 2.73891 12.0004 2.12807C12.0103 2.10837 12.0201 2.09852 12.0201 2.07881H12.03C12.0201 2.08866 12.03 2.09852 12.03 2.10837Z" fill="#8A92B2"/>
<path d="M18.0789 12.1675L18.0887 12.1773L16.6404 13.0345L12.0887 15.7241C12.069 15.734 12.0493 15.7438 12.0394 15.7537C12.0099 15.7537 12.0099 15.7241 12.0099 15.7143V15.6256V9.53694C12.0099 9.50738 12.0099 9.46797 12.0197 9.43841C12.0296 9.399 12.0591 9.40886 12.0887 9.41871C12.2168 9.47782 12.3547 9.53694 12.4828 9.59605C12.867 9.77339 13.2513 9.95073 13.6355 10.1182C13.9705 10.266 14.2956 10.4236 14.6306 10.5714C14.9656 10.7192 15.3005 10.8768 15.6355 11.0246C15.9212 11.1527 16.2168 11.2906 16.5025 11.4187C16.7882 11.5468 17.0838 11.6847 17.3695 11.8128C17.5961 11.9113 17.8227 12.0197 18.0493 12.1182C18.0493 12.1478 18.0591 12.1576 18.0789 12.1675Z" fill="#454A75"/>
<path d="M12.0296 21.8719C12.0296 21.8818 12.0198 21.8916 12.0198 21.9015H12.0099C12.0099 21.8818 11.9902 21.8719 11.9804 21.8522C11.3695 20.9951 10.7587 20.1281 10.1478 19.2709C9.52716 18.3941 8.89662 17.5074 8.27593 16.6305C7.67494 15.7832 7.06411 14.9261 6.46312 14.0788C6.30549 13.8522 6.14785 13.6355 5.99021 13.4089C5.98036 13.3892 5.97051 13.3793 5.95081 13.3497C5.98036 13.3497 6.00007 13.3695 6.00992 13.3793C6.86706 13.8818 7.71435 14.3842 8.5715 14.8867C9.55672 15.468 10.5321 16.0493 11.5173 16.6305L12.0198 16.9261C12.0395 16.9458 12.0395 16.9655 12.0395 16.9852V21.734C12.0395 21.7832 12.0395 21.8325 12.0296 21.8719Z" fill="#8A92B2"/>
<path d="M5.94092 12.1872V12.1773C6.25619 12.0394 6.56161 11.8916 6.87688 11.7537C7.28082 11.5665 7.68476 11.3892 8.0887 11.202C8.39412 11.064 8.70939 10.9162 9.01481 10.7783C9.46801 10.5714 9.91136 10.3744 10.3646 10.1675C10.67 10.0295 10.9754 9.89162 11.2907 9.74383C11.5074 9.64531 11.734 9.54679 11.9508 9.44827C11.9705 9.43842 12 9.42856 12.0099 9.40886C12.0197 9.40886 12.0197 9.41871 12.0099 9.42856V15.6847C12.0099 15.7143 12 15.7438 12.0197 15.7635C12 15.7931 11.9803 15.7635 11.9705 15.7537C11.8818 15.7044 11.7931 15.6552 11.7045 15.5961C9.80299 14.4729 7.89166 13.3399 5.99018 12.2167C5.98033 12.2069 5.96062 12.197 5.94092 12.1872Z" fill="#62688F"/>
<path d="M18.0592 13.3497H18.069C18.069 13.3695 18.0493 13.3892 18.0395 13.4089C16.2267 15.9606 14.4139 18.5222 12.6011 21.0739C12.4139 21.3399 12.2168 21.6059 12.0296 21.8719C12.0198 21.8621 12.0198 21.8522 12.0198 21.8424V21.7832V17.0049V16.9163C12.4336 16.6699 12.8375 16.4335 13.2513 16.1872C14.8474 15.2414 16.4434 14.3054 18.0296 13.3596C18.0395 13.3695 18.0493 13.3596 18.0592 13.3497Z" fill="#62688F"/>
<path d="M12.0197 9.42857V9.40887V9.34975V2.19704C12.0197 2.16749 12.0099 2.14778 12.0296 2.11823C14.0296 5.43842 16.0296 8.74877 18.0197 12.069C18.0394 12.0985 18.069 12.1379 18.0788 12.1773C17.9409 12.1281 17.8128 12.0591 17.6847 12C17.5271 11.931 17.3596 11.8522 17.202 11.7832C17.1034 11.734 16.9951 11.6946 16.8966 11.6453C16.7291 11.5665 16.5616 11.4975 16.3941 11.4187C16.2956 11.3793 16.197 11.33 16.0985 11.2808L15.4483 10.9852C15.3399 10.936 15.2315 10.8867 15.1133 10.8374L14.6404 10.6305C14.5419 10.5911 14.4434 10.5419 14.3448 10.4926L13.6946 10.197C13.5862 10.1478 13.4778 10.0985 13.3596 10.0493L12.8867 9.84236C12.7783 9.7931 12.6798 9.74384 12.5714 9.69458C12.3842 9.60591 12.197 9.51724 12 9.43842C12.0296 9.42857 12.0197 9.42857 12.0197 9.42857Z" fill="#62688F"/>
</svg>