<svg width="32" height="32" viewBox="0 0 32 32" fill="none" xmlns="http://www.w3.org/2000/svg">
<path d="M0 9.95556C0 6.47079 0 4.7284 0.678182 3.39739C1.27473 2.22661 2.22661 1.27473 3.39739 0.678182C4.7284 0 6.47078 0 9.95555 0H22.0444C25.5292 0 27.2716 0 28.6026 0.678182C29.7734 1.27473 30.7253 2.22661 31.3218 3.39739C32 4.7284 32 6.47078 32 9.95555V22.0444C32 25.5292 32 27.2716 31.3218 28.6026C30.7253 29.7734 29.7734 30.7253 28.6026 31.3218C27.2716 32 25.5292 32 22.0444 32H9.95556C6.47079 32 4.7284 32 3.39739 31.3218C2.22661 30.7253 1.27473 29.7734 0.678182 28.6026C0 27.2716 0 25.5292 0 22.0444V9.95556Z" fill="#5177FF"/>
<path d="M19.7399 10.5715C19.5032 10.6663 19.5978 10.9034 19.8345 10.9034L21.0653 10.856L18.6511 17.3508L16.3789 13.1315C15.6215 11.7567 14.2961 10.9034 12.7813 10.8086H12.1186C10.3197 10.9508 8.85228 12.0886 8.23689 13.7478L4.44991 23.9878C4.40258 24.0352 4.49725 24.13 4.54459 24.13H10.1304C10.1777 24.13 10.2251 24.0826 10.2251 24.0826L12.5446 17.6352L14.8168 21.8071C15.6688 23.3715 17.2783 24.2723 19.0771 24.13C20.8759 23.9878 22.3434 22.8975 22.9588 21.2382L26.8404 10.8086L27.8819 7.96412C27.9292 7.86931 27.8345 7.8219 27.7399 7.8219L19.7399 10.5715Z" fill="white"/>
<path d="M8.18931 13.748L4.44967 23.988C4.40233 24.0354 4.49701 24.1302 4.54434 24.1302H10.1301C10.1775 24.1302 10.2248 24.0828 10.2248 24.0828L12.5443 17.6354L14.8165 21.8072C15.5739 23.1821 16.8994 24.0354 18.4142 24.1302H19.0769L12.071 10.8087C10.2722 10.9509 8.8047 12.0887 8.18931 13.748Z" fill="#5177FF" fill-opacity="0.3"/>
<path d="M9.94067 17.0662L7.33712 23.9877C7.28978 24.0351 7.38446 24.1299 7.43179 24.1299H10.13C10.1774 24.1299 10.2247 24.0825 10.2247 24.0825L12.5442 17.6351L12.0708 16.8766C11.5975 16.1181 10.272 16.2603 9.94067 17.0662Z" fill="white"/>
<path d="M21.2542 17.9198L23.9524 10.8561H21.0175L18.6033 17.3509L19.0766 18.1094C19.5974 18.8679 20.9228 18.7731 21.2542 17.9198Z" fill="#5177FF" fill-opacity="0.3"/>
</svg>
